# xmcd CD database file
#
# Track frame offsets:
#	150
#	22962
#	40631
#	56725
#	78894
#	96549
#	117408
#	134162
#	156017
#	183068
#
# Disc length: 2765 seconds
#
# Revision: 17
# Processed by: cddbd v1.5.2PL0 Copyright (c) Steve Scherf et al.
# Submitted via: CDex 1.70beta3
#
DISCID=7d0acb0a
DTITLE=Queens of the Stone Age - ...Like Clockwork
DYEAR=2013
DGENRE=Loud Rock
TTITLE0=Keep Your Eyes Peeled
TTITLE1=I Sat By The Ocean
TTITLE2=The Vampyre Of Time And Memory
TTITLE3=If I Had A Tail
TTITLE4=My God Is The Sun
TTITLE5=Kalopsia
TTITLE6=Fairweather Friends
TTITLE7=Smooth Sailing
TTITLE8=I Appear Missing
TTITLE9=Like Clockwork
EXTD=YEAR: 2013
EXTT0=
EXTT1=
EXTT2=
EXTT3=
EXTT4=
EXTT5=
EXTT6=
EXTT7=
EXTT8=
EXTT9=
PLAYORDER=
